<svg width="20" height="21" viewBox="0 0 20 21" fill="none" xmlns="http://www.w3.org/2000/svg">
<g id="Icon" clip-path="url(#clip0_1475_286090)">
<path id="Vector" d="M8.81217 12.2918L6.85384 10.3335C6.74273 10.2224 6.60051 10.1704 6.42717 10.1777C6.25329 10.1843 6.11079 10.2432 5.99967 10.3543C5.87467 10.4793 5.81217 10.6252 5.81217 10.7918C5.81217 10.9585 5.87467 11.1043 5.99967 11.2293L8.29134 13.521C8.43023 13.6599 8.60384 13.7293 8.81217 13.7293C9.02051 13.7293 9.20106 13.6599 9.35384 13.521L13.9997 8.85433C14.1108 8.74322 14.163 8.60072 14.1563 8.42683C14.1491 8.2535 14.09 8.11127 13.9788 8.00016C13.8538 7.87516 13.708 7.81266 13.5413 7.81266C13.3747 7.81266 13.2288 7.87516 13.1038 8.00016L8.81217 12.2918ZM9.99967 18.4168C8.90245 18.4168 7.87134 18.2085 6.90634 17.7918C5.94079 17.3752 5.10384 16.8127 4.39551 16.1043C3.68717 15.396 3.12467 14.5591 2.70801 13.5935C2.29134 12.6285 2.08301 11.5974 2.08301 10.5002C2.08301 9.40294 2.29134 8.37155 2.70801 7.406C3.12467 6.441 3.68717 5.60433 4.39551 4.896C5.10384 4.18766 5.94079 3.62516 6.90634 3.2085C7.87134 2.79183 8.90245 2.5835 9.99967 2.5835C11.0969 2.5835 12.1283 2.79183 13.0938 3.2085C14.0588 3.62516 14.8955 4.18766 15.6038 4.896C16.3122 5.60433 16.8747 6.441 17.2913 7.406C17.708 8.37155 17.9163 9.40294 17.9163 10.5002C17.9163 11.5974 17.708 12.6285 17.2913 13.5935C16.8747 14.5591 16.3122 15.396 15.6038 16.1043C14.8955 16.8127 14.0588 17.3752 13.0938 17.7918C12.1283 18.2085 11.0969 18.4168 9.99967 18.4168ZM9.99967 17.1668C11.8469 17.1668 13.42 16.5177 14.7188 15.2193C16.0172 13.9204 16.6663 12.3474 16.6663 10.5002C16.6663 8.65294 16.0172 7.07989 14.7188 5.781C13.42 4.48266 11.8469 3.8335 9.99967 3.8335C8.15245 3.8335 6.57967 4.48266 5.28134 5.781C3.98245 7.07989 3.33301 8.65294 3.33301 10.5002C3.33301 12.3474 3.98245 13.9204 5.28134 15.2193C6.57967 16.5177 8.15245 17.1668 9.99967 17.1668Z" fill="#00E62E"/>
</g>
<defs>
<clipPath id="clip0_1475_286090">
<rect width="20" height="20" fill="white" transform="translate(0 0.5)"/>
</clipPath>
</defs>
</svg>
