<?xml version="1.0" standalone="no"?><!DOCTYPE svg PUBLIC "-//W3C//DTD SVG 1.1//EN" "http://www.w3.org/Graphics/SVG/1.1/DTD/svg11.dtd"><svg t="1719303055461" class="icon" viewBox="0 0 1024 1024" version="1.1" xmlns="http://www.w3.org/2000/svg" p-id="31852" xmlns:xlink="http://www.w3.org/1999/xlink" width="200" height="200"><path d="M896 789.333333a64 64 0 0 1 64 64v85.333334a21.333333 21.333333 0 0 1-21.333333 21.333333H85.333333a21.333333 21.333333 0 0 1-21.333333-21.333333v-85.333334a64 64 0 0 1 64-64l0.042667-277.333333H85.333333a21.333333 21.333333 0 0 1 0-42.666667h42.709334v-30.421333c1.536-41.024 33.173333-76.416 85.290666-103.530667V289.28c-27.797333-21.333333-42.666667-46.805333-42.666666-75.946667 0-88.576 152.810667-149.333333 341.333333-149.333333s341.333333 60.757333 341.333333 149.333333c0 28.224-14.869333 53.504-42.666666 75.648v46.549334c52.117333 27.221333 83.776 62.805333 85.333333 104.170666V469.333333h42.666667a21.333333 21.333333 0 0 1 0 42.666667h-42.666667v277.333333z m-128-511.018666a21.333333 21.333333 0 0 1 9.024-17.429334C800.32 244.48 810.666667 228.693333 810.666667 213.333333c0-54.250667-131.818667-106.666667-298.666667-106.666666s-298.666667 52.416-298.666667 106.666666c0 16.384 10.176 31.893333 33.173334 47.232a21.333333 21.333333 0 0 1 9.493333 17.749334v38.485333C324.693333 291.541333 415.146667 277.333333 512 277.333333s187.306667 14.208 256 39.466667v-38.485333zM170.666667 789.333333h682.666666V491.413333a21.717333 21.717333 0 0 1 0-1.493333v-49.408C850.986667 377.536 701.610667 320 512 320S173.013333 377.536 170.709333 439.701333L170.666667 789.333333z m746.666666 128v-64a21.333333 21.333333 0 0 0-21.333333-21.333333H128a21.333333 21.333333 0 0 0-21.333333 21.333333v64h810.666666z m-155.584-176.917333a21.333333 21.333333 0 0 1-30.165333-30.165333l42.666667-42.666667a21.333333 21.333333 0 0 1 30.165333 30.165333l-42.666667 42.666667z m-128 0a21.333333 21.333333 0 0 1-30.165333-30.165333l170.666667-170.666667a21.333333 21.333333 0 0 1 30.165333 30.165333l-170.666667 170.666667zM256 618.666667a42.666667 42.666667 0 1 1 0-85.333334 42.666667 42.666667 0 0 1 0 85.333334z m0 128a42.666667 42.666667 0 1 1 0-85.333334 42.666667 42.666667 0 0 1 0 85.333334z" fill="#0a66c2" p-id="31853"></path></svg>